# AST/ASF file generated using VICON BodyLanguage
# -----------------------------------------------
:version 1.10
:name VICON
:units
  mass 1.0
  length 0.45
  angle deg
:documentation
   .ast/.asf automatically generated from VICON data using
   VICON BodyBuilder and BodyLanguage model FoxedUp or BRILLIANT.MOD
:root
   order TX TY TZ RX RY RZ
   axis XYZ
   position 0 0 0  
   orientation 0 0 0 
:bonedata
  begin
     id 1 
     name lhipjoint
     direction 0.661853 -0.702389 0.261917 
     length 2.64193 
     axis 0 0 0  XYZ
  end
  begin
     id 2 
     name lfemur
     direction 0.34202 -0.939693 0  
     length 7.01722  
     axis 0 0 20  XYZ
    dof rx ry rz
    limits (-160.0 20.0)
           (-70.0 70.0)
           (-60.0 70.0)
  end
  begin
     id 3 
     name ltibia
     direction 0.34202 -0.939693 0   
     length 8.25008   
     axis 0 0 20   XYZ
    dof rx
    limits (-10.0 170.0)
  end
  begin
     id 4 
     name lfoot
     direction 0.0709916 -0.195048 0.978221   
     length 2.31941   
     axis -90 7.62852e-016 20   XYZ
    dof rx rz
    limits (-45.0 90.0)
           (-70.0 20.0)
  end
  begin
     id 5 
     name ltoes
     direction 1.53586e-011 -4.22017e-011 1   
     length 1.16486   
     axis -90 7.62852e-016 20   XYZ
    dof rx
    limits (-90.0 20.0)
  end
  begin
     id 6 
     name rhipjoint
     direction -0.638185 -0.721362 0.268992   
     length 2.57244  
     axis 0 0 0  XYZ 
  end
  begin
     id 7 
     name rfemur
     direction -0.34202 -0.939693 0   
     length 7.07017   
     axis 0 0 -20   XYZ
    dof rx ry rz
    limits (-160.0 20.0)
           (-70.0 70.0)
           (-70.0 60.0)
  end
  begin
     id 8 
     name rtibia
     direction -0.34202 -0.939693 0   
     length 8.20386   
     axis 0 0 -20   XYZ
    dof rx
    limits (-10.0 170.0)
 end
 begin
     id 9 
     name rfoot
     direction -0.0822429 -0.225961 0.970658   
     length 2.32215  
     axis -90 -7.62852e-016 -20   XYZ
    dof rx rz
    limits (-45.0 90.0)
           (-20.0 70.0)
  end
  begin
     id 10 
     name rtoes
     direction -1.53597e-011 -4.21689e-011 1   
     length 1.16333   
     axis -90 -7.62852e-016 -20   XYZ
    dof rx
    limits (-90.0 20.0)
  end
  begin
     id 11 
     name lowerback
     direction -0.0131557 0.998589 -0.0514484   
     length 2.14993   
     axis 0 0 0   XYZ
    dof rx ry rz
    limits (-20.0 45.0)
           (-30.0 30.0)
           (-30.0 30.0)
  end
  begin
     id 12 
     name upperback
     direction -0.000776481 0.999993 0.00352685   
     length 2.15301   
     axis 0 0 0   XYZ
    dof rx ry rz
    limits (-20.0 45.0)
           (-30.0 30.0)
           (-30.0 30.0)
  end
  begin
     id 13 
     name thorax
     direction 0.00438186 0.999609 0.0276143   
     length 2.15424   
     axis 0 0 0   XYZ
    dof rx ry rz
    limits (-20.0 45.0)
           (-30.0 30.0)
           (-30.0 30.0)
  end
  begin
     id 14 
     name lowerneck
     direction -0.0488006 0.998094 0.0377807   
     length 1.90481   
     axis 0 0 0   XYZ
    dof rx ry rz
    limits (-20.0 45.0)
           (-30.0 30.0)
           (-30.0 30.0)
  end
  begin
     id 15 
     name upperneck
     direction 0.0443769 0.990702 -0.12861   
     length 1.91305   
     axis 0 0 0   XYZ
    dof rx ry rz
    limits (-20.0 45.0)
           (-30.0 30.0)
           (-30.0 30.0)
  end
  begin
     id 16
     name head
     direction 0.0165599 0.998647 -0.0492982  
     length 1.92369  
     axis 0 0 0   XYZ
    dof rx ry rz
    limits (-20.0 45.0)
           (-30.0 30.0)
           (-30.0 30.0)
  end
  begin
     id 17 
     name lclavicle
     direction 0.911936 0.410197 -0.0105506  
     length 3.52622  
     axis 0 0 0   XYZ
    dof ry rz
    limits (-20.0 10.0)
           (0.0 20.0)
  end
  begin
     id 18 
     name lhumerus
     direction 1 -4.48974e-011 -2.48591e-028   
     length 5.47651   
     axis 180 -30 -90   XYZ
    dof rx ry rz
    limits (-60.0 90.0)
           (-90.0 90.0)
           (-90.0 90.0)
  end
  begin
     id 19
     name lradius
     direction 1 -4.48938e-011 -4.40099e-027   
     length 3.09058   
     axis 180 -30 -90   XYZ
    dof rx
    limits (-10.0 170.0)
  end
  begin
     id 20
     name lwrist
     direction 1 -4.49042e-011 -2.99852e-027   
     length 1.54529   
     axis 1.95339e-015 90 90   XYZ
    dof ry
    limits (-180.0 0.0)
 end
  begin
     id 21 
     name lhand
     direction 1 -4.48815e-011 -5.98193e-027   
     length 0.771611   
     axis 3.82337e-015 90 90   XYZ
    dof rx rz
    limits (-90.0 90.0)
           (-45.0 45.0)
  end
  begin
     id 22 
     name lfingers
     direction 1 -4.49034e-011 -1.1993e-026   
     length 0.622093   
     axis 7.64668e-015 90 90   XYZ
    dof rx
    limits (0.0 90.0)
  end
  begin
     id 23
     name lthumb
     direction 0.707107 -6.34867e-011 0.707107   
     length 0.893204   
     axis -90 45 -1.62303e-014   XYZ
    dof rx rz
    limits (-45.0 45.0)
           (-45.0 45.0)
  end
  begin
     id 24 
     name rclavicle
     direction -0.93442 0.355634 -0.0195692   
     length 3.62463  
     axis 0 0 0   XYZ 
    dof ry rz
    limits (-10.0 20.0)
           (-20.0 0.0)
  end
  begin
     id 25 
     name rhumerus
     direction -1 -4.48957e-011 -1.19147e-027  
     length 5.14182   
     axis 180 30 90   XYZ
    dof rx ry rz
    limits (-90.0 60.0)
           (-90.0 90.0)
           (-90.0 90.0)
  end
  begin
     id 26 
     name rradius
     direction -1 -4.48952e-011 -3.81062e-027   
     length 3.35565   
     axis 180 30 90   XYZ
    dof rx
    limits (-10.0 170.0)
  end
  begin
     id 27 
     name rwrist
     direction -1 -4.48973e-011 -2.99621e-027   
     length 1.67782   
     axis 1.95339e-015 -90 -90   XYZ
    dof ry
    limits (-180.0 0.0)
  end
  begin
     id 28
     name rhand
     direction -1 -4.48895e-011 -5.98727e-027   
     length 0.801042   
     axis 3.82337e-015 -90 -90   XYZ
    dof rx rz
    limits (-90.0 90.0)
           (-45.0 45.0)
  end
  begin
     id 29
     name rfingers
     direction -1 -4.49065e-011 -1.19972e-026   
     length 0.645821   
     axis 7.64668e-015 -90 -90   XYZ
    dof rx
    limits (0.0 90.0)
  end
  begin
     id 30
     name rthumb
     direction -0.707107 -6.34957e-011 0.707107   
     length 0.927273   
     axis -90 -45 1.62303e-014   XYZ
    dof rx rz
    limits (-45.0 45.0)
           (-45.0 45.0)
  end
:hierarchy
  begin
    root lhipjoint rhipjoint lowerback
    lhipjoint lfemur
    lfemur ltibia
    ltibia lfoot
    lfoot ltoes
    rhipjoint rfemur
    rfemur rtibia
    rtibia rfoot
    rfoot rtoes
    lowerback upperback
    upperback thorax
    thorax lowerneck lclavicle rclavicle
    lowerneck upperneck
    upperneck head
    lclavicle lhumerus
    lhumerus lradius
    lradius lwrist
    lwrist lhand lthumb
    lhand lfingers
    rclavicle rhumerus
    rhumerus rradius
    rradius rwrist
    rwrist rhand rthumb
    rhand rfingers
  end

#!OML:ASF E:\Style4\Style4.ASF
:FULLY-SPECIFIED
:DEGREES
306
root 1.02794 16.6407 -0.0787882 -1.94704 -5.6582 2.89194
lowerback 10.4884 2.0193 -2.65935
upperback 8.19726 2.43978 1.49817
thorax 2.50727 1.06352 2.84741
lowerneck 9.48845 -2.94246 -6.15443
upperneck 4.74862 -4.49808 2.3593
head 0.0906681 -2.3493 1.90479
rclavicle 2.38542e-014 -5.56597e-015
rhumerus -30.4045 25.3733 -74.347
rradius 131.387
rwrist -82.8934
rhand 62.8154 -7.18119
rfingers 7.12502
rthumb 74.9673 35.5112
lclavicle 2.38542e-014 -5.56597e-015
lhumerus -21.2061 -17.3421 70.8023
lradius 134.577
lwrist 78.1746
lhand 35.9771 50.51
lfingers 7.12502
lthumb 58.9851 65.3133
rfemur -22.49 -3.13232 11.5925
rtibia 55.3345
rfoot -26.8014 -15.8871
rtoes -19.4818
lfemur -19.9591 6.97151 -25.3108
ltibia 53.7428
lfoot -31.8347 10.7325
ltoes -12.3704
307
root 1.02816 16.6408 -0.0770226 -1.96505 -5.65862 2.91847
lowerback 10.4981 2.02108 -2.68058
upperback 8.20597 2.44053 1.47495
thorax 2.51142 1.06342 2.83499
lowerneck 9.50845 -2.9422 -6.1297
upperneck 4.72276 -4.49628 2.33913
head 0.0780737 -2.34758 1.8946
rclavicle 1.19271e-014 -1.66979e-014
rhumerus -30.3662 25.2154 -74.5015
rradius 131.316
rwrist -82.8454
rhand 62.9862 -7.24591
rfingers 7.12502
rthumb 74.9732 36.0823
lclavicle 1.19271e-014 -1.66979e-014
lhumerus -21.2793 -17.2685 70.9045
lradius 134.618
lwrist 78.249
lhand 36.0098 50.8958
lfingers 7.12502
lthumb 59.0133 65.6717
rfemur -22.4781 -3.106 11.5631
rtibia 55.3363
rfoot -26.783 -15.9529
rtoes -19.5955
lfemur -19.9406 7.05671 -25.3267
ltibia 53.7443
lfoot -31.8439 10.6733
ltoes -12.6359
308
root 1.02815 16.6391 -0.0753955 -1.98935 -5.64871 2.91795
lowerback 10.5185 2.01331 -2.68891
upperback 8.20745 2.42913 1.4712
thorax 2.50259 1.05756 2.83612
lowerneck 9.56005 -2.94943 -6.15818
upperneck 4.69143 -4.51139 2.32569
head 0.0605698 -2.3552 1.8973
rclavicle 2.24627e-014 1.11319e-014
rhumerus -30.375 25.0696 -74.6693
rradius 131.295
rwrist -82.732
rhand 63.1019 -7.19429
rfingers 7.12502
rthumb 74.9761 36.5648
lclavicle 2.24627e-014 1.11319e-014
lhumerus -21.3666 -17.1646 70.999
lradius 134.637
lwrist 78.3302
lhand 35.9501 51.1746
lfingers 7.12502
lthumb 58.9618 66.0005
rfemur -22.4401 -3.10446 11.5605
rtibia 55.3505
rfoot -26.6639 -16.3323
rtoes -20.9422
lfemur -19.9198 7.12419 -25.3144
ltibia 53.7598
lfoot -31.838 10.6756
ltoes -12.8592
309
root 1.02817 16.6363 -0.0742209 -1.99197 -5.62979 2.94317
lowerback 10.5303 2.00714 -2.72083
upperback 8.20662 2.4185 1.45284
thorax 2.49569 1.05149 2.83546
lowerneck 9.5503 -2.94733 -6.15346
upperneck 4.69955 -4.50771 2.33376
head 0.0646676 -2.35345 1.89867
rclavicle -3.22031e-014 2.38542e-015
rhumerus -30.3658 24.9425 -74.8582
rradius 131.293
rwrist -82.5605
rhand 63.2796 -6.92664
rfingers 7.12502
rthumb 74.979 37.4944
lclavicle -3.22031e-014 2.38542e-015
lhumerus -21.416 -17.0969 71.0728
lradius 134.569
lwrist 78.2485
lhand 36.2161 50.99
lfingers 7.12502
lthumb 59.1915 65.592
rfemur -22.4591 -3.1212 11.5269
rtibia 55.3917
rfoot -26.6245 -16.4939
rtoes -21.5912
lfemur -19.9224 7.1435 -25.3363
ltibia 53.767
lfoot -31.8454 10.6981
ltoes -12.9996
310
root 1.02957 16.634 -0.0707234 -1.98171 -5.63372 2.94456
lowerback 10.4914 2.00405 -2.70789
upperback 8.2194 2.41655 1.44325
thorax 2.5313 1.05055 2.81995
lowerneck 9.4963 -2.94996 -6.16462
upperneck 4.75101 -4.50871 2.30899
head 0.0898028 -2.35435 1.8905
rclavicle 1.03368e-014 -1.11319e-014
rhumerus -30.3602 24.787 -75.0463
rradius 131.298
rwrist -82.4713
rhand 63.4419 -7.00825
rfingers 7.12502
rthumb 74.9797 38.0176
lclavicle 1.03368e-014 -1.11319e-014
lhumerus -21.4749 -17.0275 71.1926
lradius 134.444
lwrist 78.0374
lhand 36.6726 50.5652
lfingers 7.12502
lthumb 59.5844 64.7745
rfemur -22.4993 -3.15203 11.5116
rtibia 55.4262
rfoot -26.6704 -16.3315
rtoes -21.216
lfemur -19.9248 7.16747 -25.3388
ltibia 53.7855
lfoot -31.8882 10.6194
ltoes -12.9891
